<svg xmlns="http://www.w3.org/2000/svg" viewBox="0 0 500 500" width="500" height="500" role="img" aria-label="Your photo here — CustomVibe sample magnet">
  <defs>
    <linearGradient id="bg1" x1="0" y1="0" x2="1" y2="1">
      <stop offset="0" stop-color="#FFEEF1"/>
      <stop offset="1" stop-color="#FFD3DB"/>
    </linearGradient>
  </defs>
  <rect width="500" height="500" fill="url(#bg1)"/>
  <polygon points="0,0 190,0 70,500 0,500" fill="#ffffff" opacity="0.18"/>
  <rect x="58" y="58" width="384" height="384" rx="20" fill="none" stroke="#FF9EB5" stroke-width="3" stroke-dasharray="14 12" opacity="0.7"/>
  <g transform="translate(250,205) scale(6) translate(-12,-12)" fill="none" stroke="#C2486B" stroke-width="1.7" stroke-linecap="round" stroke-linejoin="round">
    <path d="M14.5 4h-5L7 7H4a2 2 0 0 0-2 2v9a2 2 0 0 0 2 2h16a2 2 0 0 0 2-2V9a2 2 0 0 0-2-2h-3l-2.5-3z"/>
    <circle cx="12" cy="13" r="3"/>
  </g>
  <text x="250" y="352" text-anchor="middle" font-family="'Plus Jakarta Sans','Segoe UI',sans-serif" font-size="34" font-weight="700" fill="#2D3142">Your photo here</text>
  <text x="250" y="394" text-anchor="middle" font-family="'Plus Jakarta Sans','Segoe UI',sans-serif" font-size="18" font-weight="700" letter-spacing="3" fill="#C2486B">CUSTOMVIBE SAMPLE</text>
</svg>
